<svg xmlns="http://www.w3.org/2000/svg" width="320" height="175" viewBox="0 0 320 175" role="img" aria-labelledby="title desc">
  <title id="title">Alice running with the Red Queen</title>
  <desc id="desc">Minimal illustration inspired by Tenniel showing Alice running hand in hand with the Red Queen.</desc>
  <defs>
    <linearGradient id="bg" x1="0%" x2="100%" y1="0%" y2="100%">
      <stop offset="0%" stop-color="#ffffff" />
      <stop offset="100%" stop-color="#f5f5f5" />
    </linearGradient>
  </defs>
  <rect width="320" height="175" fill="url(#bg)" />
  <g fill="#1f1f1f" stroke="#1f1f1f" stroke-width="2" stroke-linecap="round" stroke-linejoin="round">
    <g transform="translate(60 38)">
      <circle cx="26" cy="18" r="10" />
      <path d="M26 28l-16 40h32z" fill="#fafafa" />
      <path d="M10 68c12-12 32-12 44 0" fill="none" />
      <path d="M40 44l30 20" />
      <path d="M12 44L-16 60" />
      <circle cx="44" cy="58" r="6" />
      <circle cx="-6" cy="56" r="6" />
    </g>
    <g transform="translate(176 30)">
      <circle cx="32" cy="20" r="10" />
      <path d="M32 28l-18 42h36z" fill="#f8d7da" />
      <path d="M32 4l6 10h-12z" fill="#d81b60" />
      <path d="M12 72c14-10 40-10 54 0" fill="none" />
      <path d="M48 48l36 18" />
      <path d="M16 48L-10 66" />
      <circle cx="60" cy="64" r="6" />
      <circle cx="2" cy="64" r="6" />
    </g>
  </g>
  <path d="M20 138c80-24 200-24 280 0" fill="none" stroke="#d0d0d0" stroke-width="4" stroke-linecap="round" />
</svg>
